<svg version="1.1" id="Layer_1" xmlns="http://www.w3.org/2000/svg" xmlns:xlink="http://www.w3.org/1999/xlink" x="0px" y="0px"
	 width="100%" viewBox="0 0 587 365" enable-background="new 0 0 587 365" xml:space="preserve">
<path fill="#FEFFFF" opacity="1.000000" stroke="none" 
	d="
M437.000000,366.000000 
	C291.333344,366.000000 146.166672,366.000000 1.000000,366.000000 
	C1.000000,244.333328 1.000000,122.666664 1.000000,1.000000 
	C196.666672,1.000000 392.333344,1.000000 588.000000,1.000000 
	C588.000000,122.666664 588.000000,244.333328 588.000000,366.000000 
	C537.833313,366.000000 487.666656,366.000000 437.000000,366.000000 
M447.008789,51.454723 
	C444.852539,51.304489 442.696381,51.024349 440.540070,51.023151 
	C394.882965,50.997765 349.225891,51.002689 303.568787,51.013325 
	C302.836945,51.013496 302.105164,51.158699 300.879425,51.288548 
	C305.734192,60.812878 310.519165,69.715286 314.798309,78.854530 
	C316.326447,82.118279 318.136139,83.084641 321.590942,83.072098 
	C354.916840,82.951035 388.243683,82.920235 421.569550,83.045158 
	C432.357086,83.085587 443.195160,83.106369 453.916840,84.121468 
	C470.387146,85.680855 484.877960,91.964874 496.650604,104.078323 
	C514.960815,122.918556 512.466370,155.613556 491.641998,171.627563 
	C476.936676,182.936005 460.128784,187.562256 442.065247,187.901825 
	C420.077606,188.315140 398.076294,188.000290 376.080902,188.000427 
	C374.313599,188.000427 372.546265,188.000412 370.051880,188.000412 
	C374.816162,197.464737 379.408051,206.232498 383.631226,215.174423 
	C385.046112,218.170273 386.693756,219.205734 390.029327,219.175186 
	C410.686920,218.985962 431.347534,218.975082 452.004852,219.161072 
	C453.854065,219.177704 456.355347,220.556030 457.412170,222.088989 
	C462.116455,228.912918 466.401367,236.025726 470.844940,243.029648 
	C491.191284,275.099487 511.568542,307.149811 531.836121,339.269379 
	C533.544678,341.977142 535.414917,343.058563 538.650574,342.932281 
	C545.472046,342.665955 552.311218,342.851257 559.143127,342.851288 
	C565.851196,342.851288 572.559204,342.851288 580.259766,342.851288 
	C551.270447,297.620422 522.879028,253.322449 495.235382,210.191177 
	C504.950653,203.012787 514.587524,197.052246 522.836975,189.563416 
	C541.965027,172.199036 548.965698,149.702469 545.631775,124.616905 
	C542.381470,100.160912 528.616150,81.934662 507.747375,69.005638 
	C489.420624,57.651474 469.305267,52.468212 447.008789,51.454723 
M216.412918,264.951782 
	C218.610336,260.561035 220.807755,256.170288 223.339188,251.112122 
	C183.906006,251.112122 145.200668,251.112122 105.659309,251.112122 
	C125.468758,212.042252 144.913940,173.690796 164.711868,134.643631 
	C174.490616,153.848389 183.986130,172.496902 193.966324,192.097290 
	C200.755936,178.739075 206.953903,166.322586 213.403305,154.038101 
	C214.739975,151.492081 214.496994,149.641418 213.266830,147.224152 
	C201.781631,124.655876 190.432449,102.018417 179.013443,79.416382 
	C174.391571,70.268188 169.694489,61.158001 164.685776,51.353519 
	C114.864899,149.912659 65.442711,247.683090 15.744278,346.000000 
	C29.082474,346.000000 41.410381,345.887207 53.733582,346.078247 
	C56.866146,346.126801 58.442112,345.064270 59.810074,342.310303 
	C68.717743,324.377625 77.920769,306.590729 86.720940,288.606293 
	C88.442802,285.087433 90.295486,283.883148 94.212364,283.901367 
	C130.205383,284.068817 166.199661,283.951202 202.193024,284.078156 
	C205.659805,284.090363 207.607910,283.184052 208.992783,279.880829 
	C211.040771,274.995850 213.669006,270.354126 216.412918,264.951782 
M304.929871,95.620346 
	C297.476227,80.989151 290.022583,66.357948 282.345734,51.288597 
	C250.135849,114.982437 218.114716,178.303040 185.902786,242.000946 
	C199.354675,242.000946 212.173279,242.114807 224.984390,241.857025 
	C226.588501,241.824753 228.858398,240.192078 229.630432,238.689728 
	C241.528900,215.535889 253.236450,192.283875 264.974701,169.047775 
	C270.715485,157.683762 276.428192,146.305573 282.368286,134.507355 
	C299.473114,168.415527 316.255951,201.752304 333.099854,235.058212 
	C351.240662,270.928528 369.470612,306.753784 387.545471,342.657227 
	C388.859283,345.266907 390.332703,346.157959 393.194733,346.070587 
	C400.187500,345.857117 407.191162,346.000977 414.190460,346.000946 
	C419.717621,346.000946 425.244781,346.000946 431.261169,346.000946 
	C430.370087,344.185211 429.877808,343.156860 429.364227,342.139252 
	C411.190857,306.131897 393.038361,270.113983 374.834839,234.121918 
	C351.605072,188.191940 328.333832,142.282944 304.929871,95.620346 
M310.811737,301.307648 
	C318.369781,286.239777 325.927795,271.171906 333.793884,255.489868 
	C319.940216,255.489868 307.282990,255.371506 294.634064,255.641541 
	C293.074982,255.674820 290.914001,257.446381 290.123505,258.976410 
	C280.981934,276.670135 272.046265,294.470245 263.065613,312.247009 
	C257.450806,323.361298 251.852356,334.483856 246.045883,346.000763 
	C259.483582,346.000763 272.295044,346.096222 285.100891,345.872833 
	C286.601013,345.846649 288.736755,344.410950 289.450989,343.041138 
	C296.560669,329.406250 303.433350,315.647766 310.811737,301.307648 
M222.014984,282.565765 
	C211.426636,303.554016 200.838287,324.542236 190.013031,346.000092 
	C203.650131,346.000092 216.747635,346.087952 229.839813,345.864105 
	C231.149002,345.841736 232.922974,344.189484 233.636002,342.845306 
	C237.890625,334.824402 241.892288,326.669434 245.987778,318.563934 
	C253.372009,303.949554 260.762543,289.338348 268.513763,274.007172 
	C256.876709,274.007172 245.936020,274.515533 235.072083,273.821930 
	C228.243439,273.386017 224.205963,275.411530 222.014984,282.565765 
M172.519958,293.000000 
	C169.855774,293.000000 167.167831,293.223267 164.533447,292.943054 
	C161.291382,292.598175 159.414185,293.626068 158.054855,296.736725 
	C155.769547,301.966400 152.973541,306.972229 150.410416,312.081268 
	C144.856888,323.151062 139.314774,334.226593 133.419464,345.995544 
	C147.417740,345.995544 160.664413,346.053925 173.907944,345.877777 
	C174.900757,345.864594 176.215302,344.354645 176.795990,343.236938 
	C180.405136,336.290131 183.820343,329.242920 187.351608,322.255219 
	C192.222900,312.615875 197.140030,302.999725 202.227631,293.000000 
	C192.157211,293.000000 182.835770,293.000000 172.519958,293.000000 
z"/>
<path fill="#7A8693" opacity="1.000000" stroke="none" 
	d="
M447.465454,51.554443 
	C469.305267,52.468212 489.420624,57.651474 507.747375,69.005638 
	C528.616150,81.934662 542.381470,100.160912 545.631775,124.616905 
	C548.965698,149.702469 541.965027,172.199036 522.836975,189.563416 
	C514.587524,197.052246 504.950653,203.012787 495.235382,210.191177 
	C522.879028,253.322449 551.270447,297.620422 580.259766,342.851288 
	C572.559204,342.851288 565.851196,342.851288 559.143127,342.851288 
	C552.311218,342.851257 545.472046,342.665955 538.650574,342.932281 
	C535.414917,343.058563 533.544678,341.977142 531.836121,339.269379 
	C511.568542,307.149811 491.191284,275.099487 470.844940,243.029648 
	C466.401367,236.025726 462.116455,228.912918 457.412170,222.088989 
	C456.355347,220.556030 453.854065,219.177704 452.004852,219.161072 
	C431.347534,218.975082 410.686920,218.985962 390.029327,219.175186 
	C386.693756,219.205734 385.046112,218.170273 383.631226,215.174423 
	C379.408051,206.232498 374.816162,197.464737 370.051880,188.000412 
	C372.546265,188.000412 374.313599,188.000427 376.080902,188.000427 
	C398.076294,188.000290 420.077606,188.315140 442.065247,187.901825 
	C460.128784,187.562256 476.936676,182.936005 491.641998,171.627563 
	C512.466370,155.613556 514.960815,122.918556 496.650604,104.078323 
	C484.877960,91.964874 470.387146,85.680855 453.916840,84.121468 
	C443.195160,83.106369 432.357086,83.085587 421.569550,83.045158 
	C388.243683,82.920235 354.916840,82.951035 321.590942,83.072098 
	C318.136139,83.084641 316.326447,82.118279 314.798309,78.854530 
	C310.519165,69.715286 305.734192,60.812878 300.879425,51.288548 
	C302.105164,51.158699 302.836945,51.013496 303.568787,51.013325 
	C349.225891,51.002689 394.882965,50.997765 440.540070,51.023151 
	C442.696381,51.024349 444.852539,51.304489 447.465454,51.554443 
z"/>
<path fill="#7A8693" opacity="1.000000" stroke="none" 
	d="
M216.231537,265.280334 
	C213.669006,270.354126 211.040771,274.995850 208.992783,279.880829 
	C207.607910,283.184052 205.659805,284.090363 202.193024,284.078156 
	C166.199661,283.951202 130.205383,284.068817 94.212364,283.901367 
	C90.295486,283.883148 88.442802,285.087433 86.720940,288.606293 
	C77.920769,306.590729 68.717743,324.377625 59.810074,342.310303 
	C58.442112,345.064270 56.866146,346.126801 53.733582,346.078247 
	C41.410381,345.887207 29.082474,346.000000 15.744278,346.000000 
	C65.442711,247.683090 114.864899,149.912659 164.685776,51.353519 
	C169.694489,61.158001 174.391571,70.268188 179.013443,79.416382 
	C190.432449,102.018417 201.781631,124.655876 213.266830,147.224152 
	C214.496994,149.641418 214.739975,151.492081 213.403305,154.038101 
	C206.953903,166.322586 200.755936,178.739075 193.966324,192.097290 
	C183.986130,172.496902 174.490616,153.848389 164.711868,134.643631 
	C144.913940,173.690796 125.468758,212.042252 105.659309,251.112122 
	C145.200668,251.112122 183.906006,251.112122 223.339188,251.112122 
	C220.807755,256.170288 218.610336,260.561035 216.231537,265.280334 
z"/>
<path fill="#043062" opacity="1.000000" stroke="none" 
	d="
M305.005188,95.992615 
	C328.333832,142.282944 351.605072,188.191940 374.834839,234.121918 
	C393.038361,270.113983 411.190857,306.131897 429.364227,342.139252 
	C429.877808,343.156860 430.370087,344.185211 431.261169,346.000946 
	C425.244781,346.000946 419.717621,346.000946 414.190460,346.000946 
	C407.191162,346.000977 400.187500,345.857117 393.194733,346.070587 
	C390.332703,346.157959 388.859283,345.266907 387.545471,342.657227 
	C369.470612,306.753784 351.240662,270.928528 333.099854,235.058212 
	C316.255951,201.752304 299.473114,168.415527 282.368286,134.507355 
	C276.428192,146.305573 270.715485,157.683762 264.974701,169.047775 
	C253.236450,192.283875 241.528900,215.535889 229.630432,238.689728 
	C228.858398,240.192078 226.588501,241.824753 224.984390,241.857025 
	C212.173279,242.114807 199.354675,242.000946 185.902786,242.000946 
	C218.114716,178.303040 250.135849,114.982437 282.345734,51.288597 
	C290.022583,66.357948 297.476227,80.989151 305.005188,95.992615 
z"/>
<path fill="#043062" opacity="1.000000" stroke="none" 
	d="
M310.592346,301.615906 
	C303.433350,315.647766 296.560669,329.406250 289.450989,343.041138 
	C288.736755,344.410950 286.601013,345.846649 285.100891,345.872833 
	C272.295044,346.096222 259.483582,346.000763 246.045883,346.000763 
	C251.852356,334.483856 257.450806,323.361298 263.065613,312.247009 
	C272.046265,294.470245 280.981934,276.670135 290.123505,258.976410 
	C290.914001,257.446381 293.074982,255.674820 294.634064,255.641541 
	C307.282990,255.371506 319.940216,255.489868 333.793884,255.489868 
	C325.927795,271.171906 318.369781,286.239777 310.592346,301.615906 
z"/>
<path fill="#043062" opacity="1.000000" stroke="none" 
	d="
M222.222870,282.249390 
	C224.205963,275.411530 228.243439,273.386017 235.072083,273.821930 
	C245.936020,274.515533 256.876709,274.007172 268.513763,274.007172 
	C260.762543,289.338348 253.372009,303.949554 245.987778,318.563934 
	C241.892288,326.669434 237.890625,334.824402 233.636002,342.845306 
	C232.922974,344.189484 231.149002,345.841736 229.839813,345.864105 
	C216.747635,346.087952 203.650131,346.000092 190.013031,346.000092 
	C200.838287,324.542236 211.426636,303.554016 222.222870,282.249390 
z"/>
<path fill="#032F61" opacity="1.000000" stroke="none" 
	d="
M173.017151,293.000000 
	C182.835770,293.000000 192.157211,293.000000 202.227631,293.000000 
	C197.140030,302.999725 192.222900,312.615875 187.351608,322.255219 
	C183.820343,329.242920 180.405136,336.290131 176.795990,343.236938 
	C176.215302,344.354645 174.900757,345.864594 173.907944,345.877777 
	C160.664413,346.053925 147.417740,345.995544 133.419464,345.995544 
	C139.314774,334.226593 144.856888,323.151062 150.410416,312.081268 
	C152.973541,306.972229 155.769547,301.966400 158.054855,296.736725 
	C159.414185,293.626068 161.291382,292.598175 164.533447,292.943054 
	C167.167831,293.223267 169.855774,293.000000 173.017151,293.000000 
z"/>
</svg>